<?xml version="1.0" encoding="utf-8"?>
<!-- Generator: Adobe Illustrator 26.3.1, SVG Export Plug-In . SVG Version: 6.00 Build 0)  -->
<svg version="1.1" id="b8f13dd0-b7a2-4152-bd59-05d0bffe9369"
	 xmlns="http://www.w3.org/2000/svg" xmlns:xlink="http://www.w3.org/1999/xlink" x="0px" y="0px" viewBox="0 0 3014.2 1027.7"
	 style="enable-background:new 0 0 3014.2 1027.7;" xml:space="preserve">
<style type="text/css">
	.st0{fill:#FFFFFF;}
</style>
<g>
	<g>
		<path class="st0" d="M1356,629.6l-129.1-105.2c-1.4-1.1-1.2-3.3,0.3-4.2l123.7-76.8c1.5-0.9,0.8-3.3-0.9-3.3h-50
			c-2.5,0-4.9,0.7-7.1,2l-157.3,97.7c-1.7,1-3.8-0.2-3.8-2.1v-94.4c0-1.7-1.4-3.1-3.1-3.1h-32.4c-1.7,0-3.1,1.4-3.1,3.1v186.5
			c0,1.7,1.4,3.1,3.1,3.1h32.4c1.7,0,3.1-1.4,3.1-3.1V583c0-2.2,1.1-4.2,3-5.3l56.1-34.8c1.4-0.9,3.2-0.7,4.5,0.3l105.6,87.9
			c2.4,2,5.3,3,8.4,3h45.2C1356.8,634.1,1357.8,631.1,1356,629.6z"/>
		<path class="st0" d="M1631.8,441.4h-108.5h-32.4h-108.5c-2,0-3.6,1.6-3.6,3.6v31.4c0,2,1.6,3.6,3.6,3.6h100.1
			c2.9,0,5.3,2.4,5.3,5.3V631c0,1.7,1.4,3.1,3.1,3.1h32.4c1.7,0,3.1-1.4,3.1-3.1V485.3c0-2.9,2.4-5.3,5.3-5.3h100.1
			c2,0,3.6-1.6,3.6-3.6V445C1635.3,443,1633.7,441.4,1631.8,441.4z"/>
		<path class="st0" d="M1937,441.4h-32.4c-1.7,0-3.1,1.4-3.1,3.1v59.7c0,2.8-2.3,5.1-5.1,5.1h-169.9c-2.8,0-5.1-2.3-5.1-5.1v-59.7
			c0-1.7-1.4-3.1-3.1-3.1H1686c-1.7,0-3.1,1.4-3.1,3.1V631c0,1.7,1.4,3.1,3.1,3.1h32.4c1.7,0,3.1-1.4,3.1-3.1v-78
			c0-2.8,2.3-5.1,5.1-5.1h169.9c2.8,0,5.1,2.3,5.1,5.1v78c0,1.7,1.4,3.1,3.1,3.1h32.4c1.7,0,3.1-1.4,3.1-3.1V444.5
			C1940.1,442.8,1938.7,441.4,1937,441.4z"/>
		<path class="st0" d="M2086.5,480h150.6c1.9,0,3.5-1.6,3.5-3.5V445c0-1.9-1.6-3.5-3.5-3.5h-150.6c-42.6,0-77.1,34.5-77.1,77.1V557
			l0,0c0,42.6,34.5,77.1,77.1,77.1h150.6l0,0c1.9,0,3.5-1.6,3.5-3.5V599c0-1.9-1.6-3.5-3.5-3.5h-150.6l0,0
			c-18,0-33.1-12.4-37.3-29.1c-0.6-2.4,1.2-4.8,3.7-4.8h184.6c1.7,0,3.1-1.4,3.1-3.1v-33.1c0-1.7-1.4-3.1-3.1-3.1h-185.7
			c-2.1,0-3.8-1.7-3.8-3.8l0,0C2048,497.2,2065.2,480,2086.5,480z"/>
		<path class="st0" d="M2521.9,444.9v137.7c0,1.9-1.6,3.5-3.5,3.5c-0.9,0-1.7-0.3-2.4-0.9l-157.2-142.9c-0.6-0.6-1.5-0.9-2.4-0.9
			h-43c-1.9,0-3.5,1.6-3.5,3.5v185.7c0,1.9,1.6,3.5,3.5,3.5l0,0h31.5c1.9,0,3.5-1.6,3.5-3.5l0,0V492.9c0-1.9,1.6-3.5,3.5-3.5
			c0.9,0,1.7,0.3,2.4,0.9l157.2,142.9c0.6,0.6,1.5,0.9,2.4,0.9h43.1c1.9,0,3.5-1.6,3.5-3.5l0,0V444.9c0-1.9-1.6-3.5-3.5-3.5h-31.5
			C2523.5,441.4,2521.9,443,2521.9,444.9L2521.9,444.9z"/>
		<path class="st0" d="M2808.8,441.4h-96.3c-42.6,0-77.1,34.5-77.1,77.1v112.1c0,1.9,1.6,3.5,3.5,3.5l0,0h31.5
			c1.9,0,3.5-1.6,3.5-3.5l0,0v-70.1c0-1.9,1.6-3.5,3.5-3.5l0,0h166.4c1.9,0,3.5,1.6,3.5,3.5l0,0v70.1c0,1.9,1.6,3.5,3.5,3.5l0,0
			h31.5c1.9,0,3.5-1.6,3.5-3.5l0,0V518.5C2885.8,475.9,2851.3,441.4,2808.8,441.4L2808.8,441.4z M2677.6,518.5
			c-1.9,0-3.5-1.5-3.5-3.4c0-0.1,0-0.2,0-0.3c1.9-19.8,18.5-34.8,38.4-34.8h96.3c19.8,0,36.4,15.1,38.4,34.8
			c0.1,1.9-1.3,3.6-3.2,3.7c-0.1,0-0.2,0-0.3,0H2677.6z"/>
	</g>
	<g>
		
			<rect x="315.6" y="626.9" transform="matrix(0.7071 -0.7071 0.7071 0.7071 -368.377 449.0339)" class="st0" width="84.5" height="84.5"/>
		
			<rect x="396.2" y="707.5" transform="matrix(0.7071 -0.7071 0.7071 0.7071 -401.7296 529.6332)" class="st0" width="84.5" height="84.5"/>
		
			<rect x="545.6" y="235.8" transform="matrix(0.7071 -0.7071 0.7071 0.7071 -24.4301 497.1114)" class="st0" width="84.5" height="84.5"/>
		
			<rect x="626.1" y="316.4" transform="matrix(0.7071 -0.7071 0.7071 0.7071 -57.8242 577.6106)" class="st0" width="84.5" height="84.5"/>
		
			<rect x="384.4" y="235.7" transform="matrix(0.7071 -0.7071 0.7071 0.7071 -71.5874 383.0887)" class="st0" width="84.5" height="84.5"/>
		
			<rect x="303.8" y="316.3" transform="matrix(0.7071 -0.7071 0.7071 0.7071 -152.1866 349.736)" class="st0" width="84.5" height="84.5"/>
		<polygon class="st0" points="507.2,298.8 447.4,358.5 277.2,528.8 256.4,507.9 325.3,439.1 265.5,379.3 196.7,448.2 136.9,507.9 
			136.9,507.9 196.7,567.7 196.7,567.7 217.5,588.5 217.5,588.5 277.2,648.3 277.2,648.3 337,588.5 507.2,418.3 587.8,498.9 
			647.6,439.2 		"/>
		
			<rect x="557.3" y="707.5" transform="matrix(0.7071 -0.7071 0.7071 0.7071 -354.5331 643.5547)" class="st0" width="84.5" height="84.5"/>
		
			<rect x="637.9" y="627" transform="matrix(0.7071 -0.7071 0.7071 0.7071 -274.0125 676.9399)" class="st0" width="84.5" height="84.5"/>
		<polygon class="st0" points="829.5,460 808.7,439.2 749,379.4 749,379.4 689.2,439.2 689.2,439.2 519,609.4 438.4,528.9 
			378.7,588.6 519,728.9 578.8,669.2 749,499 769.8,519.8 700.9,588.6 760.7,648.4 829.5,579.5 889.3,519.8 		"/>
	</g>
</g>
</svg>
