<?xml version="1.0" encoding="utf-8"?>
<!-- Generator: Adobe Illustrator 26.3.1, SVG Export Plug-In . SVG Version: 6.00 Build 0)  -->
<svg version="1.1" id="f4ffe850-6cd0-4899-952e-2feac3d5e26c"
	 xmlns="http://www.w3.org/2000/svg" xmlns:xlink="http://www.w3.org/1999/xlink" x="0px" y="0px" viewBox="0 0 1749.7 1312"
	 style="enable-background:new 0 0 1749.7 1312;" xml:space="preserve">
<style type="text/css">
	.st0{fill:#FFFFFF;}
</style>
<g>
	<g>
		<path class="st0" d="M417.9,1156.6l-93.1-75.9c-1-0.8-0.9-2.4,0.2-3l89.2-55.4c1.1-0.7,0.6-2.4-0.7-2.4h-36.1
			c-1.8,0-3.6,0.5-5.1,1.5L259,1091.8c-1.2,0.7-2.8-0.1-2.8-1.5v-68.1c0-1.2-1-2.2-2.2-2.2h-23.4c-1.2,0-2.2,1-2.2,2.2v134.5
			c0,1.2,1,2.2,2.2,2.2H254c1.2,0,2.2-1,2.2-2.2v-33.7c0-1.6,0.8-3,2.1-3.8l40.4-25.1c1-0.6,2.3-0.5,3.2,0.2l76.1,63.4
			c1.7,1.4,3.8,2.2,6,2.2h32.6C418.4,1159.8,419.2,1157.6,417.9,1156.6z"/>
		<path class="st0" d="M616.8,1020.8h-78.2h-23.4h-78.2c-1.4,0-2.6,1.2-2.6,2.6v22.7c0,1.4,1.2,2.6,2.6,2.6h72.2
			c2.1,0,3.8,1.7,3.8,3.8v105.1c0,1.2,1,2.2,2.2,2.2h23.4c1.2,0,2.2-1,2.2-2.2v-105.1c0-2.1,1.7-3.8,3.8-3.8h72.2
			c1.4,0,2.6-1.2,2.6-2.6v-22.7C619.3,1022,618.2,1020.8,616.8,1020.8z"/>
		<path class="st0" d="M836.9,1020.8h-23.4c-1.2,0-2.2,1-2.2,2.2v43.1c0,2-1.6,3.7-3.7,3.7H685.1c-2,0-3.7-1.6-3.7-3.7v-43
			c0-1.2-1-2.2-2.2-2.2h-23.4c-1.2,0-2.2,1-2.2,2.2v134.5c0,1.2,1,2.2,2.2,2.2h23.4c1.2,0,2.2-1,2.2-2.2v-56.3c0-2,1.6-3.7,3.7-3.7
			h122.5c2,0,3.7,1.6,3.7,3.7v56.3c0,1.2,1,2.2,2.2,2.2h23.4c1.2,0,2.2-1,2.2-2.2V1023C839.2,1021.8,838.2,1020.8,836.9,1020.8z"/>
		<path class="st0" d="M944.8,1048.6h108.6c1.4,0,2.5-1.1,2.5-2.5v-22.7c0-1.4-1.1-2.5-2.5-2.5H944.8c-30.7,0-55.6,24.9-55.6,55.6
			v27.8v0c0,30.7,24.9,55.6,55.6,55.6h108.6l0,0c1.4,0,2.5-1.1,2.5-2.5v-22.7c0-1.4-1.1-2.5-2.5-2.5H944.8l0,0
			c-13,0-23.9-8.9-26.9-21c-0.4-1.8,0.9-3.5,2.7-3.5h133.2c1.2,0,2.2-1,2.2-2.2v-23.9c0-1.2-1-2.2-2.2-2.2h-134
			c-1.5,0-2.8-1.2-2.8-2.8l0,0C917,1061,929.4,1048.6,944.8,1048.6z"/>
		<path class="st0" d="M1258.8,1023.3v99.3c0,1.4-1.1,2.5-2.5,2.5c-0.6,0-1.2-0.2-1.7-0.7l-113.4-103c-0.5-0.4-1.1-0.7-1.7-0.7h-31
			c-1.4,0-2.5,1.1-2.5,2.5v133.9c0,1.4,1.1,2.5,2.5,2.5c0,0,0,0,0,0h22.7c1.4,0,2.5-1.1,2.5-2.5c0,0,0,0,0,0v-99.3
			c0-1.4,1.1-2.5,2.5-2.5c0.6,0,1.2,0.2,1.7,0.7l113.3,103c0.5,0.4,1.1,0.7,1.7,0.7h31.1c1.4,0,2.5-1.1,2.5-2.5c0,0,0,0,0,0v-133.9
			c0-1.4-1.1-2.5-2.5-2.5h-22.7C1259.9,1020.8,1258.8,1021.9,1258.8,1023.3C1258.8,1023.3,1258.8,1023.3,1258.8,1023.3z"/>
		<path class="st0" d="M1465.7,1020.8h-69.5c-30.7,0-55.6,24.9-55.6,55.6v80.8c0,1.4,1.1,2.5,2.5,2.5h0h22.7c1.4,0,2.5-1.1,2.5-2.5
			c0,0,0,0,0,0v-50.5c0-1.4,1.1-2.5,2.5-2.5l0,0h120c1.4,0,2.5,1.1,2.5,2.5l0,0v50.5c0,1.4,1.1,2.5,2.5,2.5h0h22.7
			c1.4,0,2.5-1.1,2.5-2.5c0,0,0,0,0,0v-80.8C1521.3,1045.7,1496.4,1020.8,1465.7,1020.8L1465.7,1020.8z M1371.1,1076.4
			c-1.4,0-2.5-1.1-2.5-2.5c0-0.1,0-0.1,0-0.2c1.4-14.2,13.4-25.1,27.7-25.1h69.5c14.3,0,26.3,10.9,27.7,25.1c0.1,1.4-1,2.6-2.3,2.7
			c-0.1,0-0.1,0-0.2,0H1371.1z"/>
	</g>
	<g>
		
			<rect x="646.3" y="625.2" transform="matrix(0.7071 -0.7071 0.7071 0.7071 -273.0468 689.0269)" class="st0" width="97.8" height="97.8"/>
		
			<rect x="739.5" y="718.4" transform="matrix(0.7071 -0.7071 0.7071 0.7071 -311.6631 782.2549)" class="st0" width="97.8" height="97.8"/>
		
			<rect x="912.4" y="172.6" transform="matrix(0.7071 -0.7071 0.7071 0.7071 124.9571 744.6188)" class="st0" width="97.8" height="97.8"/>
		
			<rect x="1005.6" y="265.8" transform="matrix(0.7071 -0.7071 0.7071 0.7071 86.3408 837.8469)" class="st0" width="97.8" height="97.8"/>
		
			<rect x="725.9" y="172.5" transform="matrix(0.7071 -0.7071 0.7071 0.7071 70.38 612.6907)" class="st0" width="97.8" height="97.8"/>
		
			<rect x="632.6" y="265.7" transform="matrix(0.7071 -0.7071 0.7071 0.7071 -22.848 574.0744)" class="st0" width="97.8" height="97.8"/>
		<polygon class="st0" points="868,245.5 798.8,314.6 601.9,511.6 577.8,487.5 657.5,407.8 588.3,338.7 508.6,418.4 439.5,487.5 
			439.5,487.5 508.6,556.7 508.6,556.7 532.7,580.8 532.7,580.8 601.9,649.9 601.9,649.9 671,580.8 868,383.8 961.3,477.1 
			1030.5,407.9 		"/>
		
			<rect x="926" y="718.4" transform="matrix(-0.7071 0.7071 -0.7071 -0.7071 2206.8408 620.5807)" class="st0" width="97.8" height="97.8"/>
		
			<rect x="1019.2" y="625.2" transform="matrix(-0.7071 0.7071 -0.7071 -0.7071 2300.0688 395.5084)" class="st0" width="97.8" height="97.8"/>
		<polygon class="st0" points="1241,432 1217,408 1147.8,338.8 1147.8,338.8 1078.7,408 1078.7,408 881.7,605 788.4,511.7 
			719.3,580.9 881.7,743.3 950.8,674.1 1147.8,477.1 1171.9,501.2 1092.2,580.9 1161.4,650 1241,570.4 1310.2,501.2 		"/>
	</g>
</g>
</svg>
