<?xml version="1.0" encoding="utf-8"?>
<!-- Generator: Adobe Illustrator 26.3.1, SVG Export Plug-In . SVG Version: 6.00 Build 0)  -->
<svg version="1.1" id="ec1aa8c7-2400-4b9b-baea-ce0fef38af57"
	 xmlns="http://www.w3.org/2000/svg" xmlns:xlink="http://www.w3.org/1999/xlink" x="0px" y="0px" viewBox="0 0 1731.6 1691.6"
	 style="enable-background:new 0 0 1731.6 1691.6;" xml:space="preserve">
<g>
	<rect x="479.7" y="1066.9" transform="matrix(0.7071 -0.7071 0.7071 0.7071 -648.1546 734.2867)" width="165.3" height="165.3"/>
	<rect x="637.2" y="1224.4" transform="matrix(0.7071 -0.7071 0.7071 0.7071 -713.4068 891.8195)" width="165.3" height="165.3"/>
	<rect x="929.3" y="302.1" transform="matrix(0.7071 -0.7071 0.7071 0.7071 24.3756 828.2236)" width="165.3" height="165.3"/>
	<rect x="1086.8" y="459.6" transform="matrix(0.7071 -0.7071 0.7071 0.7071 -40.8766 985.7563)" width="165.3" height="165.3"/>
	<rect x="614.1" y="301.9" transform="matrix(0.7071 -0.7071 0.7071 0.7071 -67.8465 605.297)" width="165.3" height="165.3"/>
	<rect x="456.6" y="459.4" transform="matrix(0.7071 -0.7071 0.7071 0.7071 -225.3793 540.0448)" width="165.3" height="165.3"/>
	<polygon points="854.3,425.2 737.4,542.1 404.5,874.9 363.9,834.3 498.5,699.6 381.7,582.8 247,717.4 130.2,834.3 130.2,834.3 
		247,951.1 247,951.1 287.7,991.8 287.7,991.8 404.5,1108.7 404.5,1108.7 521.4,991.8 854.3,658.9 1011.9,816.6 1128.8,699.8 	"/>
	
		<rect x="952.3" y="1224.4" transform="matrix(-0.7071 0.7071 -0.7071 -0.7071 2690.9099 1499.5378)" width="165.3" height="165.3"/>
	
		<rect x="1109.8" y="1066.9" transform="matrix(-0.7071 0.7071 -0.7071 -0.7071 2848.4426 1119.2201)" width="165.3" height="165.3"/>
	<polygon points="1484.6,740.5 1443.9,699.8 1327.1,583 1327.1,583 1210.2,699.8 1210.2,699.8 877.4,1032.7 719.8,875.1 603,992 
		877.4,1266.4 994.2,1149.5 1327.1,816.7 1367.8,857.4 1233.1,992 1350,1108.9 1484.6,974.2 1601.5,857.4 	"/>
</g>
</svg>
