<?xml version="1.0" encoding="utf-8"?>
<!-- Generator: Adobe Illustrator 26.3.1, SVG Export Plug-In . SVG Version: 6.00 Build 0)  -->
<svg version="1.1" id="f986a7c0-1a31-454b-a236-685c5853643f"
	 xmlns="http://www.w3.org/2000/svg" xmlns:xlink="http://www.w3.org/1999/xlink" x="0px" y="0px" viewBox="0 0 1749.7 1312"
	 style="enable-background:new 0 0 1749.7 1312;" xml:space="preserve">
<style type="text/css">
	.st0{fill:#231815;}
	.st1{fill:#0E0F0F;}
	.st2{fill:url(#SVGID_1_);}
	.st3{fill:url(#SVGID_00000176754891165001737180000005007037161252610731_);}
	.st4{fill:url(#SVGID_00000097466093218616423030000009130862945495812742_);}
	.st5{fill:url(#SVGID_00000151502688308095808410000010917852842670349717_);}
	.st6{fill:url(#SVGID_00000091710890390977269010000016601451606685060510_);}
	.st7{fill:url(#SVGID_00000124161554216655028250000012630763725175020213_);}
	.st8{fill:url(#SVGID_00000078036066093353584890000001681711857981291950_);}
	.st9{fill:url(#SVGID_00000076573181049381529790000001045479662956966067_);}
	.st10{fill:url(#SVGID_00000010992314795810548040000011866585158381060502_);}
	.st11{fill:url(#SVGID_00000183960914714819897560000011626252779112439734_);}
</style>
<g>
	<g>
		<path class="st0" d="M417.9,1156.6l-93.1-75.9c-1-0.8-0.9-2.4,0.2-3l89.2-55.4c1.1-0.7,0.6-2.4-0.7-2.4h-36.1
			c-1.8,0-3.6,0.5-5.1,1.5L259,1091.8c-1.2,0.7-2.8-0.1-2.8-1.5v-68.1c0-1.2-1-2.2-2.2-2.2h-23.4c-1.2,0-2.2,1-2.2,2.2v134.5
			c0,1.2,1,2.2,2.2,2.2H254c1.2,0,2.2-1,2.2-2.2v-33.7c0-1.6,0.8-3,2.1-3.8l40.4-25.1c1-0.6,2.3-0.5,3.2,0.2l76.1,63.4
			c1.7,1.4,3.8,2.2,6,2.2h32.6C418.4,1159.8,419.2,1157.6,417.9,1156.6z"/>
		<path class="st0" d="M616.8,1020.8h-78.2h-23.4h-78.2c-1.4,0-2.6,1.2-2.6,2.6v22.7c0,1.4,1.2,2.6,2.6,2.6h72.2
			c2.1,0,3.8,1.7,3.8,3.8v105.1c0,1.2,1,2.2,2.2,2.2h23.4c1.2,0,2.2-1,2.2-2.2v-105.1c0-2.1,1.7-3.8,3.8-3.8h72.2
			c1.4,0,2.6-1.2,2.6-2.6v-22.7C619.3,1022,618.2,1020.8,616.8,1020.8z"/>
		<path class="st0" d="M836.9,1020.8h-23.4c-1.2,0-2.2,1-2.2,2.2v43.1c0,2-1.6,3.7-3.7,3.7H685.1c-2,0-3.7-1.6-3.7-3.7v-43
			c0-1.2-1-2.2-2.2-2.2h-23.4c-1.2,0-2.2,1-2.2,2.2v134.5c0,1.2,1,2.2,2.2,2.2h23.4c1.2,0,2.2-1,2.2-2.2v-56.3c0-2,1.6-3.7,3.7-3.7
			h122.5c2,0,3.7,1.6,3.7,3.7v56.3c0,1.2,1,2.2,2.2,2.2h23.4c1.2,0,2.2-1,2.2-2.2V1023C839.2,1021.8,838.2,1020.8,836.9,1020.8z"/>
		<path class="st1" d="M944.8,1048.6h108.6c1.4,0,2.5-1.1,2.5-2.5v-22.7c0-1.4-1.1-2.5-2.5-2.5H944.8c-30.7,0-55.6,24.9-55.6,55.6
			v27.8v0c0,30.7,24.9,55.6,55.6,55.6h108.6l0,0c1.4,0,2.5-1.1,2.5-2.5v-22.7c0-1.4-1.1-2.5-2.5-2.5H944.8l0,0
			c-13,0-23.9-8.9-26.9-21c-0.4-1.8,0.9-3.5,2.7-3.5h133.2c1.2,0,2.2-1,2.2-2.2v-23.9c0-1.2-1-2.2-2.2-2.2h-134
			c-1.5,0-2.8-1.2-2.8-2.8l0,0C917,1061,929.4,1048.6,944.8,1048.6z"/>
		<path class="st1" d="M1258.8,1023.3v99.3c0,1.4-1.1,2.5-2.5,2.5c-0.6,0-1.2-0.2-1.7-0.7l-113.4-103c-0.5-0.4-1.1-0.7-1.7-0.7h-31
			c-1.4,0-2.5,1.1-2.5,2.5v133.9c0,1.4,1.1,2.5,2.5,2.5c0,0,0,0,0,0h22.7c1.4,0,2.5-1.1,2.5-2.5c0,0,0,0,0,0v-99.3
			c0-1.4,1.1-2.5,2.5-2.5c0.6,0,1.2,0.2,1.7,0.7l113.3,103c0.5,0.4,1.1,0.7,1.7,0.7h31.1c1.4,0,2.5-1.1,2.5-2.5c0,0,0,0,0,0v-133.9
			c0-1.4-1.1-2.5-2.5-2.5h-22.7C1259.9,1020.8,1258.8,1021.9,1258.8,1023.3C1258.8,1023.3,1258.8,1023.3,1258.8,1023.3z"/>
		<path class="st1" d="M1465.7,1020.8h-69.5c-30.7,0-55.6,24.9-55.6,55.6v80.8c0,1.4,1.1,2.5,2.5,2.5h0h22.7c1.4,0,2.5-1.1,2.5-2.5
			c0,0,0,0,0,0v-50.5c0-1.4,1.1-2.5,2.5-2.5l0,0h120c1.4,0,2.5,1.1,2.5,2.5l0,0v50.5c0,1.4,1.1,2.5,2.5,2.5h0h22.7
			c1.4,0,2.5-1.1,2.5-2.5c0,0,0,0,0,0v-80.8C1521.3,1045.7,1496.4,1020.8,1465.7,1020.8L1465.7,1020.8z M1371.1,1076.4
			c-1.4,0-2.5-1.1-2.5-2.5c0-0.1,0-0.1,0-0.2c1.4-14.2,13.4-25.1,27.7-25.1h69.5c14.3,0,26.3,10.9,27.7,25.1c0.1,1.4-1,2.6-2.3,2.7
			c-0.1,0-0.1,0-0.2,0H1371.1z"/>
	</g>
	<g>
		<linearGradient id="SVGID_1_" gradientUnits="userSpaceOnUse" x1="695.2057" y1="180.8636" x2="695.2057" y2="752.8663">
			<stop  offset="0" style="stop-color:#DE5423"/>
			<stop  offset="0.2473" style="stop-color:#DE5022"/>
			<stop  offset="0.5034" style="stop-color:#DD4420"/>
			<stop  offset="0.7627" style="stop-color:#DC331D"/>
			<stop  offset="1" style="stop-color:#DB2218"/>
		</linearGradient>
		<polygon class="st2" points="764.4,674.1 695.2,743.3 626.1,674.1 695.2,605 		"/>
		
			<linearGradient id="SVGID_00000095318832163099202940000001731216702104345512_" gradientUnits="userSpaceOnUse" x1="788.4337" y1="180.8636" x2="788.4337" y2="752.8663">
			<stop  offset="0" style="stop-color:#DE5423"/>
			<stop  offset="0.2473" style="stop-color:#DE5022"/>
			<stop  offset="0.5034" style="stop-color:#DD4420"/>
			<stop  offset="0.7627" style="stop-color:#DC331D"/>
			<stop  offset="1" style="stop-color:#DB2218"/>
		</linearGradient>
		<polygon style="fill:url(#SVGID_00000095318832163099202940000001731216702104345512_);" points="857.6,767.3 788.4,836.5 
			719.3,767.3 788.4,698.2 		"/>
		
			<linearGradient id="SVGID_00000118381577420385822980000011020302537835276988_" gradientUnits="userSpaceOnUse" x1="961.313" y1="180.8636" x2="961.313" y2="752.8663">
			<stop  offset="0" style="stop-color:#DE5423"/>
			<stop  offset="0.2473" style="stop-color:#DE5022"/>
			<stop  offset="0.5034" style="stop-color:#DD4420"/>
			<stop  offset="0.7627" style="stop-color:#DC331D"/>
			<stop  offset="1" style="stop-color:#DB2218"/>
		</linearGradient>
		<polygon style="fill:url(#SVGID_00000118381577420385822980000011020302537835276988_);" points="1030.5,221.5 961.3,290.6 
			892.2,221.5 961.3,152.3 		"/>
		
			<linearGradient id="SVGID_00000066514665546922231200000009797105708265401781_" gradientUnits="userSpaceOnUse" x1="1054.541" y1="180.8636" x2="1054.541" y2="752.8663">
			<stop  offset="0" style="stop-color:#DE5423"/>
			<stop  offset="0.2473" style="stop-color:#DE5022"/>
			<stop  offset="0.5034" style="stop-color:#DD4420"/>
			<stop  offset="0.7627" style="stop-color:#DC331D"/>
			<stop  offset="1" style="stop-color:#DB2218"/>
		</linearGradient>
		<polygon style="fill:url(#SVGID_00000066514665546922231200000009797105708265401781_);" points="1123.7,314.7 1054.5,383.9 
			985.4,314.7 1054.5,245.5 		"/>
		
			<linearGradient id="SVGID_00000021080831768338208120000012225333978399103659_" gradientUnits="userSpaceOnUse" x1="774.7731" y1="180.8636" x2="774.7731" y2="752.8663">
			<stop  offset="0" style="stop-color:#DE5423"/>
			<stop  offset="0.2473" style="stop-color:#DE5022"/>
			<stop  offset="0.5034" style="stop-color:#DD4420"/>
			<stop  offset="0.7627" style="stop-color:#DC331D"/>
			<stop  offset="1" style="stop-color:#DB2218"/>
		</linearGradient>
		<polygon style="fill:url(#SVGID_00000021080831768338208120000012225333978399103659_);" points="843.9,221.4 774.8,290.5 
			705.6,221.4 774.8,152.2 		"/>
		
			<linearGradient id="SVGID_00000083069444479682453810000013726115621596710309_" gradientUnits="userSpaceOnUse" x1="681.5451" y1="180.8636" x2="681.5451" y2="752.8663">
			<stop  offset="0" style="stop-color:#DE5423"/>
			<stop  offset="0.2473" style="stop-color:#DE5022"/>
			<stop  offset="0.5034" style="stop-color:#DD4420"/>
			<stop  offset="0.7627" style="stop-color:#DC331D"/>
			<stop  offset="1" style="stop-color:#DB2218"/>
		</linearGradient>
		<polygon style="fill:url(#SVGID_00000083069444479682453810000013726115621596710309_);" points="750.7,314.6 681.5,383.8 
			612.4,314.6 681.5,245.5 		"/>
		
			<linearGradient id="SVGID_00000071529753931957480660000003300126902880046514_" gradientUnits="userSpaceOnUse" x1="734.971" y1="180.8636" x2="734.971" y2="752.8663">
			<stop  offset="0" style="stop-color:#DE5423"/>
			<stop  offset="0.2473" style="stop-color:#DE5022"/>
			<stop  offset="0.5034" style="stop-color:#DD4420"/>
			<stop  offset="0.7627" style="stop-color:#DC331D"/>
			<stop  offset="1" style="stop-color:#DB2218"/>
		</linearGradient>
		<polygon style="fill:url(#SVGID_00000071529753931957480660000003300126902880046514_);" points="868,245.5 798.8,314.6 
			601.9,511.6 577.8,487.5 657.5,407.8 588.3,338.7 508.6,418.4 439.5,487.5 439.5,487.5 508.6,556.7 508.6,556.7 532.7,580.8 
			532.7,580.8 601.9,649.9 601.9,649.9 671,580.8 868,383.8 961.3,477.1 1030.5,407.9 		"/>
		
			<linearGradient id="SVGID_00000173869397321284688870000015437725316208874389_" gradientUnits="userSpaceOnUse" x1="974.8939" y1="180.8636" x2="974.8939" y2="752.8663">
			<stop  offset="0" style="stop-color:#DE5423"/>
			<stop  offset="0.2473" style="stop-color:#DE5022"/>
			<stop  offset="0.5034" style="stop-color:#DD4420"/>
			<stop  offset="0.7627" style="stop-color:#DC331D"/>
			<stop  offset="1" style="stop-color:#DB2218"/>
		</linearGradient>
		<polygon style="fill:url(#SVGID_00000173869397321284688870000015437725316208874389_);" points="905.7,767.3 974.9,698.2 
			1044,767.3 974.9,836.5 		"/>
		
			<linearGradient id="SVGID_00000093135032167977949330000016979234952364254097_" gradientUnits="userSpaceOnUse" x1="1068.1219" y1="180.8636" x2="1068.1219" y2="752.8663">
			<stop  offset="0" style="stop-color:#DE5423"/>
			<stop  offset="0.2473" style="stop-color:#DE5022"/>
			<stop  offset="0.5034" style="stop-color:#DD4420"/>
			<stop  offset="0.7627" style="stop-color:#DC331D"/>
			<stop  offset="1" style="stop-color:#DB2218"/>
		</linearGradient>
		<polygon style="fill:url(#SVGID_00000093135032167977949330000016979234952364254097_);" points="999,674.1 1068.1,605 
			1137.3,674.1 1068.1,743.3 		"/>
		
			<linearGradient id="SVGID_00000171704173496251798150000010020257565431092415_" gradientUnits="userSpaceOnUse" x1="1014.7362" y1="180.8636" x2="1014.7362" y2="752.8663">
			<stop  offset="0" style="stop-color:#DE5423"/>
			<stop  offset="0.2473" style="stop-color:#DE5022"/>
			<stop  offset="0.5034" style="stop-color:#DD4420"/>
			<stop  offset="0.7627" style="stop-color:#DC331D"/>
			<stop  offset="1" style="stop-color:#DB2218"/>
		</linearGradient>
		<polygon style="fill:url(#SVGID_00000171704173496251798150000010020257565431092415_);" points="1241,432 1217,408 1147.8,338.8 
			1147.8,338.8 1078.7,408 1078.7,408 881.7,605 788.4,511.7 719.3,580.9 881.7,743.3 950.8,674.1 1147.8,477.1 1171.9,501.2 
			1092.2,580.9 1161.4,650 1241,570.4 1310.2,501.2 		"/>
	</g>
</g>
</svg>
