<?xml version="1.0" encoding="utf-8"?>
<!-- Generator: Adobe Illustrator 26.3.1, SVG Export Plug-In . SVG Version: 6.00 Build 0)  -->
<svg version="1.1" id="f317bb9e-30de-4f6a-94cf-e5edc97261fe"
	 xmlns="http://www.w3.org/2000/svg" xmlns:xlink="http://www.w3.org/1999/xlink" x="0px" y="0px" viewBox="0 0 3014.2 1027.7"
	 style="enable-background:new 0 0 3014.2 1027.7;" xml:space="preserve">
<style type="text/css">
	.st0{fill:#231815;}
	.st1{fill:#0E0F0F;}
	.st2{fill:url(#SVGID_1_);}
	.st3{fill:url(#SVGID_00000178171644446920555470000000408934259620209843_);}
	.st4{fill:url(#SVGID_00000141455052952796913450000012564261710282880167_);}
	.st5{fill:url(#SVGID_00000118383260121422521370000004676055496759883404_);}
	.st6{fill:url(#SVGID_00000075876602826761572800000011387990813677299646_);}
	.st7{fill:url(#SVGID_00000015333071273698375790000003663147784521828242_);}
	.st8{fill:url(#SVGID_00000032618766059207855380000013789137653805095356_);}
	.st9{fill:url(#SVGID_00000176757769388113882100000014570714113736994239_);}
	.st10{fill:url(#SVGID_00000173852430671630132300000017270245822911296926_);}
	.st11{fill:url(#SVGID_00000168795522069052385740000009468693271473226921_);}
</style>
<g>
	<g>
		<path class="st0" d="M1356,637.4l-129.1-105.2c-1.4-1.1-1.2-3.3,0.3-4.2l123.7-76.8c1.5-0.9,0.8-3.3-0.9-3.3h-50
			c-2.5,0-4.9,0.7-7.1,2l-157.3,97.6c-1.7,1-3.8-0.2-3.8-2.1V451c0-1.7-1.4-3.1-3.1-3.1h-32.4c-1.7,0-3.1,1.4-3.1,3.1v186.5
			c0,1.7,1.4,3.1,3.1,3.1h32.4c1.7,0,3.1-1.4,3.1-3.1v-46.8c0-2.2,1.1-4.2,3-5.3l56.1-34.8c1.4-0.9,3.2-0.7,4.5,0.3l105.6,87.9
			c2.4,2,5.3,3,8.4,3h45.2C1356.8,641.8,1357.8,638.9,1356,637.4z"/>
		<path class="st0" d="M1631.8,449.1h-108.5h-32.4h-108.5c-2,0-3.6,1.6-3.6,3.6v31.4c0,2,1.6,3.6,3.6,3.6h100.1
			c2.9,0,5.3,2.4,5.3,5.3v145.7c0,1.7,1.4,3.1,3.1,3.1h32.4c1.7,0,3.1-1.4,3.1-3.1V493c0-2.9,2.4-5.3,5.3-5.3h100.1
			c2,0,3.6-1.6,3.6-3.6v-31.4C1635.3,450.7,1633.7,449.1,1631.8,449.1z"/>
		<path class="st0" d="M1937,449.1h-32.4c-1.7,0-3.1,1.4-3.1,3.1v59.7c0,2.8-2.3,5.1-5.1,5.1h-169.9c-2.8,0-5.1-2.3-5.1-5.1v-59.7
			c0-1.7-1.4-3.1-3.1-3.1H1686c-1.7,0-3.1,1.4-3.1,3.1v186.5c0,1.7,1.4,3.1,3.1,3.1h32.4c1.7,0,3.1-1.4,3.1-3.1v-78
			c0-2.8,2.3-5.1,5.1-5.1h169.9c2.8,0,5.1,2.3,5.1,5.1v78c0,1.7,1.4,3.1,3.1,3.1h32.4c1.7,0,3.1-1.4,3.1-3.1V452.2
			C1940.1,450.5,1938.7,449.1,1937,449.1z"/>
		<path class="st1" d="M2086.5,487.7h150.6c1.9,0,3.5-1.6,3.5-3.5v-31.5c0-1.9-1.6-3.5-3.5-3.5h-150.6c-42.6,0-77.1,34.5-77.1,77.1
			v38.5v0c0,42.6,34.5,77.1,77.1,77.1h150.6l0,0c1.9,0,3.5-1.6,3.5-3.5v-31.5c0-1.9-1.6-3.5-3.5-3.5h-150.6l0,0
			c-18,0-33.1-12.4-37.3-29.1c-0.6-2.4,1.2-4.8,3.7-4.8h184.6c1.7,0,3.1-1.4,3.1-3.1v-33.1c0-1.7-1.4-3.1-3.1-3.1h-185.7
			c-2.1,0-3.8-1.7-3.8-3.8v0C2048,504.9,2065.2,487.7,2086.5,487.7z"/>
		<path class="st1" d="M2521.9,452.6v137.7c0,1.9-1.6,3.5-3.5,3.5c-0.9,0-1.7-0.3-2.4-0.9l-157.2-142.9c-0.6-0.6-1.5-0.9-2.4-0.9
			h-43c-1.9,0-3.5,1.6-3.5,3.5v185.6c0,1.9,1.6,3.5,3.5,3.5c0,0,0,0,0,0h31.5c1.9,0,3.5-1.6,3.5-3.5c0,0,0,0,0,0V500.6
			c0-1.9,1.6-3.5,3.5-3.5c0.9,0,1.7,0.3,2.4,0.9l157.2,142.9c0.6,0.6,1.5,0.9,2.4,0.9h43.1c1.9,0,3.5-1.6,3.5-3.5c0,0,0,0,0,0V452.6
			c0-1.9-1.6-3.5-3.5-3.5h-31.5C2523.4,449.1,2521.9,450.7,2521.9,452.6C2521.9,452.6,2521.9,452.6,2521.9,452.6z"/>
		<path class="st1" d="M2808.7,449.1h-96.3c-42.6,0-77.1,34.5-77.1,77.1v112.1c0,1.9,1.6,3.5,3.5,3.5h0h31.5c1.9,0,3.5-1.6,3.5-3.5
			c0,0,0,0,0,0v-70.1c0-1.9,1.6-3.5,3.5-3.5l0,0h166.4c1.9,0,3.5,1.6,3.5,3.5v0v70.1c0,1.9,1.6,3.5,3.5,3.5h0h31.5
			c1.9,0,3.5-1.6,3.5-3.5c0,0,0,0,0,0V526.2C2885.8,483.6,2851.3,449.1,2808.7,449.1L2808.7,449.1z M2677.6,526.2
			c-1.9,0-3.5-1.5-3.5-3.4c0-0.1,0-0.2,0-0.3c1.9-19.8,18.5-34.8,38.4-34.8h96.3c19.8,0,36.4,15.1,38.4,34.8
			c0.1,1.9-1.3,3.6-3.2,3.7c-0.1,0-0.2,0-0.3,0H2677.6z"/>
	</g>
	<g>
		<linearGradient id="SVGID_1_" gradientUnits="userSpaceOnUse" x1="357.8888" y1="250.6796" x2="357.8888" y2="744.9509">
			<stop  offset="0" style="stop-color:#DE5423"/>
			<stop  offset="0.2473" style="stop-color:#DE5022"/>
			<stop  offset="0.5034" style="stop-color:#DD4420"/>
			<stop  offset="0.7627" style="stop-color:#DC331D"/>
			<stop  offset="1" style="stop-color:#DB2218"/>
		</linearGradient>
		<polygon class="st2" points="417.6,676.9 357.9,736.7 298.1,676.9 357.9,617.1 		"/>
		
			<linearGradient id="SVGID_00000128474159504438250560000015467810333695650440_" gradientUnits="userSpaceOnUse" x1="438.4477" y1="250.6796" x2="438.4477" y2="744.9509">
			<stop  offset="0" style="stop-color:#DE5423"/>
			<stop  offset="0.2473" style="stop-color:#DE5022"/>
			<stop  offset="0.5034" style="stop-color:#DD4420"/>
			<stop  offset="0.7627" style="stop-color:#DC331D"/>
			<stop  offset="1" style="stop-color:#DB2218"/>
		</linearGradient>
		<polygon style="fill:url(#SVGID_00000128474159504438250560000015467810333695650440_);" points="498.2,757.5 438.4,817.2 
			378.7,757.5 438.4,697.7 		"/>
		
			<linearGradient id="SVGID_00000172430440021586836780000005082219788380792988_" gradientUnits="userSpaceOnUse" x1="587.8338" y1="250.6796" x2="587.8338" y2="744.9509">
			<stop  offset="0" style="stop-color:#DE5423"/>
			<stop  offset="0.2473" style="stop-color:#DE5022"/>
			<stop  offset="0.5034" style="stop-color:#DD4420"/>
			<stop  offset="0.7627" style="stop-color:#DC331D"/>
			<stop  offset="1" style="stop-color:#DB2218"/>
		</linearGradient>
		<polygon style="fill:url(#SVGID_00000172430440021586836780000005082219788380792988_);" points="647.6,285.8 587.8,345.5 
			528.1,285.8 587.8,226 		"/>
		
			<linearGradient id="SVGID_00000077325597163359584100000015648459370230650761_" gradientUnits="userSpaceOnUse" x1="668.3927" y1="250.6796" x2="668.3927" y2="744.9509">
			<stop  offset="0" style="stop-color:#DE5423"/>
			<stop  offset="0.2473" style="stop-color:#DE5022"/>
			<stop  offset="0.5034" style="stop-color:#DD4420"/>
			<stop  offset="0.7627" style="stop-color:#DC331D"/>
			<stop  offset="1" style="stop-color:#DB2218"/>
		</linearGradient>
		<polygon style="fill:url(#SVGID_00000077325597163359584100000015648459370230650761_);" points="728.2,366.3 668.4,426.1 
			608.6,366.3 668.4,306.6 		"/>
		
			<linearGradient id="SVGID_00000111184001859958378690000002834914159484339079_" gradientUnits="userSpaceOnUse" x1="426.6435" y1="250.6796" x2="426.6435" y2="744.9509">
			<stop  offset="0" style="stop-color:#DE5423"/>
			<stop  offset="0.2473" style="stop-color:#DE5022"/>
			<stop  offset="0.5034" style="stop-color:#DD4420"/>
			<stop  offset="0.7627" style="stop-color:#DC331D"/>
			<stop  offset="1" style="stop-color:#DB2218"/>
		</linearGradient>
		<polygon style="fill:url(#SVGID_00000111184001859958378690000002834914159484339079_);" points="486.4,285.7 426.6,345.5 
			366.9,285.7 426.6,225.9 		"/>
		
			<linearGradient id="SVGID_00000175318869588397777760000001072456253848894881_" gradientUnits="userSpaceOnUse" x1="346.0846" y1="250.6796" x2="346.0846" y2="744.9509">
			<stop  offset="0" style="stop-color:#DE5423"/>
			<stop  offset="0.2473" style="stop-color:#DE5022"/>
			<stop  offset="0.5034" style="stop-color:#DD4420"/>
			<stop  offset="0.7627" style="stop-color:#DC331D"/>
			<stop  offset="1" style="stop-color:#DB2218"/>
		</linearGradient>
		<polygon style="fill:url(#SVGID_00000175318869588397777760000001072456253848894881_);" points="405.8,366.3 346.1,426 
			286.3,366.3 346.1,306.5 		"/>
		
			<linearGradient id="SVGID_00000173129264559174669420000005439650783848719238_" gradientUnits="userSpaceOnUse" x1="392.2502" y1="250.6796" x2="392.2502" y2="744.9509">
			<stop  offset="0" style="stop-color:#DE5423"/>
			<stop  offset="0.2473" style="stop-color:#DE5022"/>
			<stop  offset="0.5034" style="stop-color:#DD4420"/>
			<stop  offset="0.7627" style="stop-color:#DC331D"/>
			<stop  offset="1" style="stop-color:#DB2218"/>
		</linearGradient>
		<polygon style="fill:url(#SVGID_00000173129264559174669420000005439650783848719238_);" points="507.2,306.5 447.4,366.3 
			277.2,536.5 256.4,515.7 325.3,446.8 265.5,387.1 196.7,455.9 136.9,515.7 136.9,515.7 196.7,575.4 196.7,575.4 217.5,596.2 
			217.5,596.2 277.2,656 277.2,656 337,596.2 507.2,426 587.8,506.6 647.6,446.9 		"/>
		
			<linearGradient id="SVGID_00000085962140728385586400000005151438664857690046_" gradientUnits="userSpaceOnUse" x1="599.5692" y1="250.6796" x2="599.5692" y2="744.9509">
			<stop  offset="0" style="stop-color:#DE5423"/>
			<stop  offset="0.2473" style="stop-color:#DE5022"/>
			<stop  offset="0.5034" style="stop-color:#DD4420"/>
			<stop  offset="0.7627" style="stop-color:#DC331D"/>
			<stop  offset="1" style="stop-color:#DB2218"/>
		</linearGradient>
		<polygon style="fill:url(#SVGID_00000085962140728385586400000005151438664857690046_);" points="539.8,757.5 599.6,697.7 
			659.3,757.5 599.6,817.2 		"/>
		
			<linearGradient id="SVGID_00000061471497189671656850000005499852042122452384_" gradientUnits="userSpaceOnUse" x1="680.1281" y1="250.6796" x2="680.1281" y2="744.9509">
			<stop  offset="0" style="stop-color:#DE5423"/>
			<stop  offset="0.2473" style="stop-color:#DE5022"/>
			<stop  offset="0.5034" style="stop-color:#DD4420"/>
			<stop  offset="0.7627" style="stop-color:#DC331D"/>
			<stop  offset="1" style="stop-color:#DB2218"/>
		</linearGradient>
		<polygon style="fill:url(#SVGID_00000061471497189671656850000005499852042122452384_);" points="620.4,676.9 680.1,617.1 
			739.9,676.9 680.1,736.7 		"/>
		
			<linearGradient id="SVGID_00000150065197735137300560000013990085274190052000_" gradientUnits="userSpaceOnUse" x1="633.9971" y1="250.6796" x2="633.9971" y2="744.9509">
			<stop  offset="0" style="stop-color:#DE5423"/>
			<stop  offset="0.2473" style="stop-color:#DE5022"/>
			<stop  offset="0.5034" style="stop-color:#DD4420"/>
			<stop  offset="0.7627" style="stop-color:#DC331D"/>
			<stop  offset="1" style="stop-color:#DB2218"/>
		</linearGradient>
		<polygon style="fill:url(#SVGID_00000150065197735137300560000013990085274190052000_);" points="829.5,467.7 808.7,446.9 
			749,387.2 749,387.2 689.2,446.9 689.2,446.9 519,617.1 438.4,536.6 378.7,596.3 519,736.7 578.8,676.9 749,506.7 769.8,527.5 
			700.9,596.3 760.7,656.1 829.5,587.2 889.3,527.5 		"/>
	</g>
</g>
</svg>
